<?xml version="1.0" encoding="UTF-8"?>
<svg width="100px" height="100px" viewBox="0 0 100 100" version="1.1" xmlns="http://www.w3.org/2000/svg" xmlns:xlink="http://www.w3.org/1999/xlink">
    <!-- Generator: Sketch 51.3 (57544) - http://www.bohemiancoding.com/sketch -->
    <title>Untitled 14</title>
    <desc>Created with Sketch.</desc>
    <defs></defs>
    <g id="Page-1" stroke="none" stroke-width="1" fill="none" fill-rule="evenodd">
        <g id="noun_Rocket_2280856" fill="#000000" fill-rule="nonzero">
            <path d="M75.72463,34.40649 C74.3667624,35.7613047 72.5228383,36.5158348 70.6047342,36.5015411 C68.6866302,36.4872473 66.8541558,35.7053208 65.51663,34.33042 C62.8679263,31.5303441 62.8681106,27.148793 65.51705,24.34894 C67.9025103,21.8981054 71.6859711,21.4710538 74.55772,23.32849 C75.323868,23.8087233 76.3210717,23.6904751 76.95366,23.04438 L76.98999,23.00806 C77.4251736,22.5852783 77.6469271,21.9890607 77.5937892,21.3846556 C77.5406513,20.7802506 77.2182674,20.2318723 76.71599,19.89151 C72.6610083,17.2919813 67.3994189,17.5699524 63.6409124,20.5822696 C59.8824059,23.5945868 58.4652989,28.6693675 60.1193939,33.1931265 C61.773489,37.7168855 66.1298484,40.6806204 70.94497,40.5580235 C75.7600916,40.4354265 79.9599861,37.2538424 81.38173,32.65177 C81.5748064,32.0559893 81.4842863,31.4045886 81.1360803,30.8840258 C80.7878743,30.363463 80.220366,30.031121 79.596,29.98213 C78.651595,29.9154483 77.7871589,30.5123952 77.515,31.41919 C77.1729993,32.5470576 76.5580414,33.5731382 75.72463,34.40649 Z" id="Shape"></path>
            <path d="M98.68746,1.31194 C97.6692185,0.296996013 96.226952,-0.169699755 94.80715,0.05633 L91.89633,0.52392 C76.7770559,2.92057621 62.8095536,10.0569585 52.00784,20.90405 L37.84823,35.06536 L18.13644,31.91876 L5.74569,44.2619 L55.73892,94.25512 L68.08206,81.86437 L64.9349,62.14922 L79.10238,47.98174 C89.9424849,37.1841155 97.0757619,23.2245392 99.47482,8.11358 L99.94344,5.19329 C100.170002,3.77306472 99.7030991,2.33019697 98.68746,1.31194 Z M11.48959,44.26751 L19.53671,36.25121 L34.30477,38.60912 L20.06887,52.8468 L11.48959,44.26751 Z M55.7333,88.51122 L47.1531,79.931 L61.3912,65.693 L63.7496,80.4641 L55.7333,88.51122 Z M95.4681,7.46911 C93.2032498,21.7368119 86.4682763,34.9174592 76.23324,45.1126 L44.284,77.06188 L22.9382,55.71612 L54.87734,23.77288 C65.0760143,13.5311551 78.2637252,6.79287502 92.539,4.5296 L95.45056,4.06274 C95.80499,4.0053 95.99481,4.19512 95.93737,4.54955 L95.4681,7.46911 Z" id="Shape"></path>
            <rect id="Rectangle-path" transform="translate(44.241247, 55.787618) rotate(-44.999380) translate(-44.241247, -55.787618) " x="32.2585725" y="53.7587984" width="23.96535" height="4.05764" rx="2.02881"></rect>
            <path d="M34.30466,79.60818 C26.1485261,87.772148 15.8292441,93.4353418 4.56222,95.93075 C4.19522,96.01199 3.98752,95.80502 4.06943,95.43728 C6.5646349,84.1703575 12.2277413,73.8511707 20.39169,65.69522 L17.52249,62.826 C8.81268083,71.5275533 2.77063808,82.5367036 0.10788,94.557 C-0.223769523,96.0493428 0.229957291,97.607693 1.31087527,98.6887549 C2.39179325,99.7698167 3.95008309,100.223751 5.44247,99.8923 C17.462866,97.2293257 28.4720989,91.1871651 37.1738,82.4773 L34.30466,79.60818 Z" id="Shape"></path>
            <path d="M22.66617,68.086 C21.80844,69.01654 14.25339,77.35328 13.15717,83.46784 C12.9945864,84.371209 13.2858376,85.2968336 13.93641,85.94434 C13.96101,85.96894 13.98585,85.99311 14.01069,86.01581 C14.7146492,86.6747505 15.7062181,86.9288569 16.64033,86.6897 C19.0384,86.08063 25.33433,83.94556 31.98823,77.2917 L29.119,74.42251 C25.9306837,77.7277338 22.0842172,80.3270662 17.82829,82.05245 C19.57629,77.95779 23.86961,72.76797 25.64951,70.83535 L22.66617,68.086 Z" id="Shape"></path>
            <path d="M10.94113,62.95474 C11.5581346,62.3377642 11.7427269,61.4098648 11.4088315,60.603721 C11.0749362,59.7975773 10.2883084,59.271946 9.41575243,59.2719288 C8.5431965,59.2719116 7.756548,59.797512 7.42262093,60.6036426 C7.08869386,61.4097733 7.27324965,62.3376799 7.89023,62.95468 C8.73272089,63.7971197 10.098606,63.7971466 10.94113,62.95474 Z" id="Shape"></path>
            <path d="M51.94113,6.54127 C52.7836273,5.69880418 52.7836533,4.3328718 51.941188,3.49037392 C51.0987228,2.64787605 49.7327904,2.64784918 48.890292,3.49031392 C48.0477935,4.33277866 48.0477658,5.69871104 48.89023,6.54121 C49.7327186,7.38365526 51.0986083,7.38368213 51.94113,6.54127 Z" id="Shape"></path>
            <path d="M36.89645,87.8027 C36.2794464,88.4196916 36.0948659,89.3476053 36.4287787,90.1537531 C36.7626915,90.959901 37.5493386,91.4855245 38.421905,91.4855245 C39.2944714,91.4855245 40.0811185,90.959901 40.4150313,90.1537531 C40.7489441,89.3476053 40.5643636,88.4196916 39.94736,87.8027 C39.5427958,87.3981023 38.9940689,87.1707989 38.421905,87.1707989 C37.8497411,87.1707989 37.3010142,87.3981023 36.89645,87.8027 Z" id="Shape"></path>
            <path d="M69.949,91.20422 C69.3320005,91.8212092 69.1474219,92.7491181 69.4813335,93.5552615 C69.8152451,94.3614049 70.6018882,94.8870253 71.47445,94.8870253 C72.3470118,94.8870253 73.1336549,94.3614049 73.4675665,93.5552615 C73.8014781,92.7491181 73.6168995,91.8212092 72.9999,91.20422 C72.5953362,90.7996254 72.0466114,90.5723239 71.47445,90.5723239 C70.9022886,90.5723239 70.3535638,90.7996254 69.949,91.20422 Z" id="Shape"></path>
            <circle id="Oval" cx="11.57298" cy="8.66987" r="3.58333"></circle>
            <circle id="Oval" cx="83.42023" cy="67.16987" r="3.58333"></circle>
            <circle id="Oval" cx="31.98819" cy="22.56177" r="3.05857"></circle>
            <circle id="Oval" cx="91.74588" cy="93.79622" r="3.05857"></circle>
        </g>
    </g>
</svg>