<?xml version="1.0" encoding="UTF-8"?>
<svg width="77px" height="77px" viewBox="0 0 77 77" version="1.1" xmlns="http://www.w3.org/2000/svg" xmlns:xlink="http://www.w3.org/1999/xlink">
    <!-- Generator: Sketch 51.3 (57544) - http://www.bohemiancoding.com/sketch -->
    <title>noun_Sliders_423790</title>
    <desc>Created with Sketch.</desc>
    <defs></defs>
    <g id="Page-1" stroke="none" stroke-width="1" fill="none" fill-rule="evenodd">
        <g id="noun_Sliders_423790" fill="#000000" fill-rule="nonzero">
            <path d="M42.5,40.5 L40.5,40.5 L40.5,0.5 L36.5,0.5 L36.5,40.5 L34.5,40.5 C31.191,40.5 28.5,43.191 28.5,46.5 L28.5,54.5 C28.5,57.809 31.192,60.5 34.5,60.5 L36.5,60.5 L36.5,76.5 L40.5,76.5 L40.5,60.5 L42.5,60.5 C45.809,60.5 48.5,57.809 48.5,54.5 L48.5,46.5 C48.5,43.191 45.809,40.5 42.5,40.5 Z M44.5,54.5 C44.5,55.604 43.602,56.5 42.5,56.5 L34.5,56.5 C33.398,56.5 32.5,55.604 32.5,54.5 L32.5,46.5 C32.5,45.396 33.397,44.5 34.5,44.5 L42.5,44.5 C43.602,44.5 44.5,45.396 44.5,46.5 L44.5,54.5 Z M70.5,16.5 L68.5,16.5 L68.5,0.5 L64.5,0.5 L64.5,16.5 L62.5,16.5 C59.191,16.5 56.5,19.191 56.5,22.5 L56.5,30.5 C56.5,33.808 59.191,36.5 62.5,36.5 L64.5,36.5 L64.5,76.5 L68.5,76.5 L68.5,36.5 L70.5,36.5 C73.809,36.5 76.5,33.809 76.5,30.5 L76.5,22.5 C76.5,19.191 73.809,16.5 70.5,16.5 Z M72.5,30.5 C72.5,31.604 71.602,32.5 70.5,32.5 L62.5,32.5 C61.398,32.5 60.5,31.604 60.5,30.5 L60.5,22.5 C60.5,21.396 61.398,20.5 62.5,20.5 L70.5,20.5 C71.602,20.5 72.5,21.396 72.5,22.5 L72.5,30.5 Z M14.5,16.5 L12.5,16.5 L12.5,0.5 L8.5,0.5 L8.5,16.5 L6.5,16.5 C3.192,16.5 0.5,19.191 0.5,22.5 L0.5,30.5 C0.5,33.809 3.191,36.5 6.5,36.5 L8.5,36.5 L8.5,76.5 L12.5,76.5 L12.5,36.5 L14.5,36.5 C17.809,36.5 20.5,33.808 20.5,30.5 L20.5,22.5 C20.5,19.191 17.809,16.5 14.5,16.5 Z M16.5,30.5 C16.5,31.604 15.603,32.5 14.5,32.5 L6.5,32.5 C5.397,32.5 4.5,31.604 4.5,30.5 L4.5,22.5 C4.5,21.396 5.397,20.5 6.5,20.5 L14.5,20.5 C15.603,20.5 16.5,21.397 16.5,22.5 L16.5,30.5 Z" id="Shape"></path>
        </g>
    </g>
</svg>